<svg width="91" height="60" viewBox="0 0 91 60" fill="none" xmlns="http://www.w3.org/2000/svg">
<path d="M43.4917 2.16867C41.2756 3.33619 34.2774 5.67124 31.2448 6.29391C29.9618 6.52742 27.1625 6.95551 25.0242 7.18902L21.1363 7.61711L21.0197 13.4547C20.8253 22.7949 22.0694 31.0843 24.8298 38.5954C28.6788 48.9864 35.4437 56.4974 43.4528 59.1827L45.9022 60L48.3515 59.1827C58.5378 55.7969 66.8967 44.0828 69.696 29.2552C70.6291 24.3516 71.2512 15.4395 70.9013 11.2364L70.6291 7.50036L67.4799 7.22794C61.1815 6.68309 54.3778 4.9318 48.5848 2.32434C47.224 1.70166 45.9022 1.19573 45.6689 1.23465C45.4356 1.27356 44.4636 1.70166 43.4917 2.16867ZM34.7828 19.5648C34.5106 20.6155 33.3832 26.1807 33.3832 26.5699C33.3832 26.7645 33.6164 26.8812 33.8886 26.8812C34.1607 26.8812 34.7828 25.8305 35.2882 24.5851C36.6101 21.2771 37.9709 20.0707 40.4591 20.0707C42.092 20.0707 42.5197 20.2264 43.3361 21.1604C43.9193 21.8609 44.2692 22.756 44.2692 23.5733C44.2692 24.663 44.036 25.0132 43.064 25.5191C42.4419 25.8694 41.2367 26.1029 40.4591 26.0251C39.1761 25.9083 39.0206 25.7916 38.904 24.7019C38.7873 23.69 39.0206 23.3008 39.9537 22.6003C41.3144 21.6663 41.5477 20.6545 40.3814 20.6545C39.215 20.6545 37.4266 22.5225 36.0658 25.13L34.8606 27.465L36.7267 27.7374C38.7096 28.0099 41.1589 29.5276 42.4419 31.2011C42.8307 31.7848 43.2973 33.0302 43.375 34.0421L43.6083 35.8323H42.2475C40.187 35.8323 37.271 35.3653 37.271 35.0539C37.271 34.8982 37.621 34.6647 38.0486 34.548C39.0984 34.2756 39.3705 33.3415 38.7484 32.0573C38.1653 30.8508 35.9492 29.2163 34.8994 29.2163C34.0052 29.2163 33.9275 30.8508 34.705 33.8086C34.9772 34.9372 35.0938 35.8323 34.9383 35.8323C34.7828 35.8323 34.0052 35.5598 33.2665 35.2485C32.4889 34.9372 31.3226 34.6647 30.6616 34.6647C29.6508 34.6647 29.4953 34.5091 29.4953 33.6529C29.4953 32.8745 29.6508 32.7189 30.234 32.9135C30.6616 33.0302 31.0504 32.9913 31.1671 32.8356C31.2448 32.6799 31.0893 30.0725 30.8172 27.0758C30.0396 18.9421 29.8841 19.6815 32.5278 19.2145C33.7331 18.981 34.8217 18.7864 34.8994 18.7475C34.9772 18.7475 34.8994 19.0978 34.7828 19.5648ZM50.4899 20.1096C53.017 20.3431 54.4166 20.4988 54.611 20.6155C54.6499 20.6545 54.3 21.9387 53.7946 23.4565C51.9284 29.333 52.2783 32.6021 54.9221 33.8475C56.5938 34.6258 59.7042 34.0031 60.715 32.641C61.8036 31.1622 61.2982 30.773 59.2765 31.4735C57.1381 32.2519 55.4275 31.8238 55.2331 30.4227C55.0387 29.2163 56.0495 28.2434 58.0324 27.6596C60.1707 27.0758 61.2204 27.3872 61.9591 28.866C62.6201 30.0725 62.3868 31.5124 61.1038 34.7037C60.5984 36.0268 60.4429 36.1436 59.432 35.8323C57.2548 35.2096 51.1119 34.9761 49.3624 35.4431C47.4962 35.949 47.4962 35.949 47.3018 34.8593C47.224 34.1977 47.3796 34.081 48.4682 34.1588C49.5179 34.2366 49.7123 34.1199 49.5568 33.5751C48.6626 30.4617 48.4293 28.866 48.3904 25.13C48.3126 21.0047 48.2738 20.849 47.3796 20.6545C46.8741 20.5377 46.3687 20.1874 46.2909 19.915C46.1743 19.5648 46.3687 19.4869 46.8352 19.6037C47.2629 19.7594 48.8958 19.9539 50.4899 20.1096Z" fill="#162B4E"/>
</svg>
